<?xml version="1.0" encoding="utf-8"?>
<!-- Generator: Adobe Illustrator 26.1.0, SVG Export Plug-In . SVG Version: 6.00 Build 0)  -->
<svg width="55px" height="55px" version="1.1" id="Layer_1" xmlns="http://www.w3.org/2000/svg" xmlns:xlink="http://www.w3.org/1999/xlink" x="0px" y="0px"
	 viewBox="0 0 64.8 62.3" style="enable-background:new 0 0 64.8 62.3;" xml:space="preserve">
<style type="text/css">
	.st0{fill:#80544B;}
	.st1{opacity:0.44;}
	.st2{fill:#EBA767;}
	.st3{fill:#754B44;}
	.st4{fill:#8C5C54;}
	.st5{clip-path:url(#SVGID_00000080170831529399104980000006661443334647273364_);}
	.st6{fill:#D2AF7B;}
	.st7{fill:#C45F43;}
	.st8{opacity:0.25;fill:#80544B;enable-background:new    ;}
	.st9{fill:#222221;}
	.st10{fill:#FFFFFF;}
</style>
<g>
	<g id="a">
	</g>
	<g id="b">
		<g id="c">
			<g>
				<g>
					<path class="st0" d="M34.4,38c4.3,0.8,7.1-2.8,7.2-6.8c0.1-2.9-0.9-6.5-2.6-11.8C36.1,11.1,34.7-0.5,32.1,0
						c0.1,0-1.9,0.7-1.9,6.5c-0.1,0-0.8-6.7-2.7-5.8c-2,1-1.5,5.7-1.5,5.7c-0.1,0-0.7-4.8-2.3-4.3c-1.9,0.5-1,10.4-0.8,10.3
						c-0.1,0-0.8-4.9-2.2-3.7c-1.3,0.8-5.1,11.8,5.7,24.2C29.6,36.3,32.3,37.6,34.4,38L34.4,38z"/>
					<g class="st1">
						<path class="st2" d="M35.3,14.4c-0.3-1.7-0.6-3.4-1-5.2c-0.2-0.9-0.4-1.7-0.7-2.6c-0.1-0.4-0.3-0.8-0.5-1.2
							C33.1,5.3,33,5.1,32.8,5c-0.2-0.2-0.4-0.2-0.6-0.2h0c-0.3,0.1-0.4,0.3-0.6,0.5c-0.1,0.2-0.2,0.4-0.3,0.7
							c-0.2,0.5-0.3,1-0.4,1.5c-0.1,0.5-0.1,1-0.1,1.5c0,0.5,0,1,0,1.5c0.1,0,0.1,0,0.2-0.1c-0.3-0.8-0.7-1.7-1.1-2.5
							c-0.2-0.4-0.4-0.8-0.7-1.2c-0.1-0.2-0.3-0.4-0.5-0.5C28.6,6.1,28.4,6,28.1,6c-0.2,0-0.4,0.2-0.6,0.4c-0.2,0.2-0.3,0.4-0.4,0.6
							c-0.2,0.4-0.3,0.9-0.4,1.4c-0.2,1-0.2,2-0.1,3c0.1,0,0.2-0.1,0.2-0.1c-0.2-0.4-0.4-0.9-0.6-1.3c-0.2-0.4-0.5-0.8-0.9-1
							c-0.2-0.1-0.4-0.2-0.6-0.2c-0.1,0-0.2,0-0.3,0.1c-0.1,0.1-0.2,0.2-0.2,0.3c-0.2,0.4-0.3,0.9-0.4,1.4c-0.1,1-0.1,2-0.1,2.9
							c0.1,1,0.2,2,0.3,2.9c0.1,0,0.1-0.1,0.2-0.1c-0.2-0.4-0.5-0.8-0.8-1.2c-0.3-0.4-0.6-0.8-0.9-1c-0.2-0.1-0.4-0.3-0.6-0.3
							c-0.2,0-0.4,0-0.6,0.2c-0.3,0.4-0.4,0.9-0.4,1.4c-0.1,1,0.1,2,0.2,3.1c0.2,1,0.4,2,0.6,3c-0.2-1-0.4-2-0.5-3
							c-0.1-1-0.2-2-0.1-3c0-0.5,0.1-1,0.4-1.3c0.1-0.1,0.3-0.2,0.5-0.2s0.3,0.1,0.5,0.3c0.6,0.6,1.1,1.4,1.6,2.2
							c0.1,0.2,0.2,0.3,0.3,0.5c0-0.2-0.1-0.4-0.1-0.6c-0.1-1-0.2-1.9-0.3-2.9c0-1-0.1-1.9,0.1-2.9c0.1-0.5,0.1-0.9,0.3-1.3
							c0.2-0.4,0.6-0.4,0.9-0.1c0.3,0.2,0.6,0.6,0.8,1c0.2,0.4,0.4,0.8,0.6,1.2c0.1,0.3,0.2,0.5,0.3,0.8c0-0.3,0-0.6-0.1-0.8
							c-0.1-1-0.1-2,0.1-2.9c0.1-0.5,0.2-0.9,0.4-1.3c0.1-0.2,0.2-0.4,0.3-0.5c0.1-0.1,0.3-0.3,0.5-0.3c0.3,0,0.7,0.3,0.9,0.7
							c0.3,0.3,0.5,0.7,0.7,1.1c0.4,0.8,0.8,1.6,1.1,2.5c0.1,0.2,0.1,0.4,0.2,0.6c0-0.2,0-0.4,0-0.6c0-0.5,0-1,0-1.5
							c0-0.5,0-1,0.1-1.5c0.1-0.5,0.2-1,0.3-1.4c0.1-0.2,0.2-0.5,0.3-0.6C31.9,5.2,32,5,32.2,5h0c0.2-0.1,0.4,0,0.5,0.1
							c0.1,0.1,0.3,0.3,0.4,0.5c0.2,0.4,0.4,0.8,0.5,1.2c0.3,0.8,0.5,1.7,0.7,2.5C34.7,11,35,12.7,35.3,14.4L35.3,14.4z"/>
					</g>
					<g class="st1">
						<path class="st2" d="M35.4,20.1c-0.4-1.3-0.8-2.7-1.2-4c-0.2-0.7-0.5-1.3-0.8-1.9c-0.2-0.3-0.3-0.6-0.5-0.9
							c-0.1-0.1-0.2-0.3-0.4-0.4c-0.1-0.1-0.3-0.1-0.5-0.1l0,0c-0.2,0.1-0.3,0.3-0.4,0.4c-0.1,0.2-0.1,0.4-0.2,0.6
							c-0.1,0.4-0.1,0.8-0.1,1.2c0,0.8,0.1,1.6,0.2,2.4l0.1-0.1c-0.3-0.6-0.7-1.2-1.1-1.8c-0.2-0.3-0.4-0.6-0.7-0.8
							c-0.1-0.1-0.3-0.2-0.4-0.3c-0.1-0.1-0.3-0.2-0.5-0.1c-0.4,0.1-0.5,0.5-0.7,0.8c-0.1,0.4-0.2,0.7-0.2,1.1
							c0,0.8,0.1,1.5,0.2,2.3c0.1,0,0.1-0.1,0.2-0.1c-0.2-0.3-0.4-0.6-0.6-0.9c-0.2-0.3-0.5-0.5-0.8-0.7c-0.2-0.1-0.3-0.1-0.5-0.1
							c-0.1,0-0.2,0.1-0.2,0.1c-0.1,0.1-0.1,0.2-0.1,0.2c-0.1,0.4-0.1,0.7-0.1,1.1c0,0.7,0.1,1.5,0.2,2.2c0.1,0.7,0.3,1.5,0.5,2.2
							c0,0,0.1,0,0.1-0.1c-0.4-0.6-0.9-1.2-1.5-1.6c-0.1-0.1-0.3-0.2-0.5-0.2c-0.2,0-0.3,0.1-0.4,0.2c-0.2,0.3-0.2,0.7-0.2,1.1
							c0,0.8,0.2,1.5,0.4,2.3c0.2,0.8,0.4,1.5,0.7,2.2c-0.2-0.7-0.5-1.5-0.6-2.2c-0.2-0.8-0.3-1.5-0.3-2.3c0-0.4,0-0.8,0.2-1
							c0.2-0.2,0.5-0.2,0.8,0c0.5,0.4,1,0.9,1.4,1.5c0.1,0.1,0.1,0.2,0.2,0.3c0-0.1-0.1-0.2-0.1-0.4c-0.2-0.7-0.4-1.4-0.5-2.2
							c-0.1-0.7-0.2-1.5-0.2-2.2c0-0.4,0-0.7,0.1-1c0.1-0.3,0.4-0.3,0.7-0.2c0.5,0.3,0.9,0.9,1.2,1.5c0.1,0.2,0.2,0.3,0.3,0.5
							c0-0.2-0.1-0.4-0.1-0.6c-0.1-0.7-0.2-1.5-0.2-2.2c0-0.4,0.1-0.7,0.2-1.1c0.1-0.3,0.3-0.7,0.5-0.7c0.3-0.1,0.5,0.2,0.8,0.4
							c0.2,0.2,0.4,0.5,0.6,0.8c0.4,0.6,0.8,1.2,1.1,1.8c0.1,0.1,0.1,0.2,0.2,0.4c0-0.1-0.1-0.3-0.1-0.4c-0.1-0.8-0.2-1.6-0.2-2.4
							c0-0.4,0-0.8,0.1-1.2c0-0.2,0.1-0.4,0.2-0.5c0.1-0.2,0.2-0.3,0.3-0.4l0,0c0.1-0.1,0.3,0,0.4,0c0.1,0.1,0.2,0.2,0.3,0.3
							c0.2,0.3,0.4,0.6,0.5,0.9c0.3,0.6,0.6,1.3,0.8,1.9C34.6,17.4,35,18.7,35.4,20.1L35.4,20.1z"/>
					</g>
				</g>
				<g>
					<path class="st3" d="M23.4,35.9c0,0-22.7-3.6-23.4-0.6c-0.3,1.3,2.6,2.4,2.6,2.4s-1.4,0.5-0.8,1.3c0.8,1.1,2.9,1.5,2.9,1.5
						S3.1,41,3.8,42.3c1.3,2.6,13,1.4,20.7-0.2L23.4,35.9L23.4,35.9z"/>
					<g class="st1">
						<path class="st2" d="M5.4,40.8c1.3-0.1,2.6-0.2,3.9-0.2c1.3-0.1,2.6-0.1,3.9-0.2c1.3,0,2.6-0.1,3.9-0.1c1.3,0,2.6,0,3.9,0
							c-1.3,0.1-2.6,0.2-3.9,0.2c-1.3,0.1-2.6,0.1-3.9,0.2c-1.3,0-2.6,0.1-3.9,0.1C8,40.8,6.7,40.8,5.4,40.8z"/>
					</g>
					<g class="st1">
						<path class="st2" d="M3.3,37.8c1.3,0,2.6-0.1,3.9-0.1c1.3,0,2.6,0,3.9,0c1.3,0,2.6,0,3.9,0.1c1.3,0,2.6,0.1,3.9,0.2
							c-1.3,0-2.6,0.1-3.9,0.1c-1.3,0-2.6,0-3.9,0c-1.3,0-2.6,0-3.9-0.1C5.9,38,4.6,37.9,3.3,37.8z"/>
					</g>
				</g>
				<path class="st4" d="M60.1,20.5c-0.9-2.7-2.6-5-6-6.3c0,0-8.8-3.8-14.7,2.2C32,23.8,16.7,31.7,17.7,38.2
					c2.7,10.3,20.8,16.6,30.5,8.5c4-2.9,7.9-11.9,8.8-12.9C61.1,26.7,61.2,23.8,60.1,20.5L60.1,20.5z M48.5,27.7L48.5,27.7
					L48.5,27.7z"/>
				<g>
					<defs>
						<path id="SVGID_1_" d="M60.1,20.5c-0.9-2.7-2.6-5-6-6.3c0,0-8.7-3.7-14.7,2.2C32,23.5,20.5,36.4,17.7,38.2
							c2.7,10.3,20.8,16.6,30.5,8.5c4-2.9,7.9-11.9,8.8-12.9C61.1,26.7,61.2,23.8,60.1,20.5L60.1,20.5z M48.5,27.7L48.5,27.7
							L48.5,27.7z"/>
					</defs>
					<clipPath id="SVGID_00000008123196767737198010000001595696253394035633_">
						<use xlink:href="#SVGID_1_"  style="overflow:visible;"/>
					</clipPath>
					<g style="clip-path:url(#SVGID_00000008123196767737198010000001595696253394035633_);">
						<path class="st6" d="M48.6,34.3c-3.8-0.8-17.9-3.4-28,11.2c5.7,8.4,25.4,11.4,32.5,3.6C45.2,45.5,46.4,39,48.6,34.3z"/>
						<path class="st7" d="M61.2,31.1c0.7-3.9,0.5-7.9-1.2-11.1c-3.4-1.3-9.6-2.9-12.8,0.8c-3.8,4.2,1.5,7.9,1.5,7.9
							S33.3,39.2,53.4,47c1.7-1.8,3-3.9,4.2-5.9C59.1,38.6,60.6,34.9,61.2,31.1L61.2,31.1z"/>
					</g>
				</g>
				<g>
					<path class="st8" d="M30.5,27.6c2.5-3.6,7-3.1,9.9-0.1c2.2,2.1,3.3,3.8,5.7,9.1c4.2,8.1,5,8.7,2.1,9.6c-0.3,0,2.6,9.4,1.5,7.6
						c0,0,1.7,2.2-0.4,2.8c-2.2,0.5-2.5,0.2-2.5,0.2c0,0,0.3,0.3-1.2,1c-1.6,0.7-5.3-3.2-5.2-3.2c-0.1,0,3,4.2,1,4.3
						c-1.5,0.4-12-5-13.1-21.9C28.3,32.3,29.3,29.4,30.5,27.6L30.5,27.6z"/>
					<path class="st0" d="M32.6,29.9c2.4-3.6,6.9-3.3,9.9-0.6c2.2,1.9,4.1,5.1,6.8,10c4,7.8,11.4,16.7,9.3,18.3c0.1,0-1.9,0.9-6-3.1
						c-0.1,0.1,4.3,5.2,2.3,5.9c-2.1,0.8-5.2-2.8-5.2-2.9c-0.1,0,3,3.8,1.6,4.7c-1.6,1-8.2-6.4-8-6.5c-0.1,0,3.1,3.9,1.2,4.1
						c-1.5,0.5-12-4.4-13.7-20.8C30.6,34.5,31.5,31.6,32.6,29.9L32.6,29.9z"/>
					<g class="st1">
						<path class="st2" d="M50.4,45.3c1.1,1.4,2.1,2.8,3.1,4.2c0.5,0.7,1,1.5,1.4,2.2c0.2,0.4,0.4,0.8,0.5,1.2
							c0.1,0.2,0.1,0.4,0.1,0.7c0,0.2-0.1,0.5-0.3,0.6l0,0c-0.2,0.1-0.5,0.1-0.8,0.1c-0.2,0-0.5-0.1-0.7-0.2
							c-0.5-0.2-0.9-0.5-1.3-0.8c-0.4-0.3-0.8-0.6-1.2-1c-0.4-0.3-0.7-0.7-1.1-1.1c0.1,0,0.1-0.1,0.2-0.1c0.4,0.8,0.8,1.6,1.1,2.5
							c0.2,0.4,0.3,0.9,0.4,1.3c0,0.2,0.1,0.5,0.1,0.7c0,0.2-0.1,0.5-0.3,0.6c-0.2,0.2-0.4,0.2-0.7,0.2c-0.2,0-0.5-0.1-0.7-0.1
							c-0.5-0.2-0.9-0.4-1.3-0.7c-0.8-0.6-1.6-1.2-2.2-2c0.1,0,0.2-0.1,0.2-0.1c0.2,0.4,0.4,0.9,0.5,1.3c0.1,0.4,0.2,0.9,0.2,1.3
							c0,0.2-0.1,0.4-0.3,0.6C47.1,56.9,47,57,46.9,57c-0.1,0-0.3,0-0.4,0c-0.5-0.1-0.9-0.4-1.3-0.7c-0.8-0.6-1.5-1.3-2.2-2
							c-0.7-0.7-1.3-1.5-1.9-2.3c0.1,0,0.1-0.1,0.2-0.1c0.1,0.5,0.3,0.9,0.4,1.4c0.1,0.5,0.2,0.9,0.1,1.4c0,0.2-0.1,0.4-0.2,0.6
							c-0.1,0.2-0.3,0.3-0.5,0.3c-0.5,0-0.9-0.4-1.3-0.7c-0.8-0.7-1.4-1.5-2.1-2.3c-0.6-0.8-1.2-1.7-1.8-2.5
							c0.6,0.9,1.2,1.7,1.8,2.5c0.6,0.8,1.3,1.6,2.1,2.2c0.4,0.3,0.8,0.6,1.2,0.6c0.2,0,0.3-0.1,0.4-0.2c0.1-0.2,0.1-0.3,0.1-0.6
							c0-0.8-0.2-1.8-0.5-2.7c-0.1-0.2-0.1-0.3-0.2-0.5c0.1,0.2,0.2,0.3,0.3,0.4c0.6,0.8,1.2,1.5,1.9,2.2c0.7,0.7,1.4,1.4,2.1,1.9
							c0.4,0.3,0.8,0.5,1.2,0.7c0.4,0.1,0.6-0.2,0.7-0.5c0.1-0.4,0-0.8-0.2-1.2c-0.1-0.4-0.3-0.8-0.5-1.2c-0.1-0.3-0.2-0.5-0.3-0.8
							c0.2,0.2,0.4,0.4,0.6,0.6c0.7,0.7,1.4,1.4,2.2,1.9c0.4,0.3,0.8,0.5,1.2,0.6c0.2,0.1,0.4,0.1,0.6,0.1c0.2,0,0.4,0,0.5-0.1
							c0.2-0.2,0.2-0.7,0.1-1.1c-0.1-0.4-0.2-0.8-0.4-1.3c-0.3-0.8-0.7-1.7-1-2.5c-0.1-0.2-0.2-0.4-0.2-0.5c0.1,0.1,0.3,0.3,0.4,0.4
							c0.4,0.4,0.7,0.7,1.1,1.1c0.4,0.3,0.8,0.7,1.2,0.9c0.4,0.3,0.8,0.6,1.3,0.7c0.2,0.1,0.5,0.2,0.7,0.2c0.2,0,0.5,0,0.6,0l0,0
							c0.2-0.1,0.2-0.3,0.3-0.4c0-0.2,0-0.4-0.1-0.6c-0.1-0.4-0.3-0.8-0.5-1.2c-0.4-0.8-0.9-1.5-1.4-2.2
							C52.4,48.2,51.4,46.7,50.4,45.3L50.4,45.3z"/>
					</g>
					<g class="st1">
						<path class="st2" d="M46.3,41.4c0.7,1.2,1.4,2.4,2.1,3.6c0.3,0.6,0.6,1.2,0.9,1.9c0.1,0.3,0.2,0.7,0.3,1c0,0.2,0,0.3,0,0.5
							c0,0.2-0.1,0.4-0.3,0.4l0,0c-0.2,0.1-0.4,0-0.6,0c-0.2-0.1-0.4-0.1-0.5-0.3c-0.3-0.2-0.7-0.5-0.9-0.7
							c-0.6-0.5-1.1-1.2-1.6-1.8l0.1-0.1c0.2,0.7,0.4,1.4,0.6,2c0.1,0.3,0.1,0.7,0.2,1c0,0.2,0,0.4,0,0.5c0,0.2-0.1,0.4-0.3,0.5
							c-0.3,0.2-0.7,0.1-1.1-0.1c-0.3-0.2-0.6-0.4-0.9-0.7c-0.6-0.5-1.1-1.1-1.5-1.7c0.1,0,0.1-0.1,0.2-0.1c0.1,0.3,0.2,0.7,0.2,1
							c0,0.3,0.1,0.7,0,1c-0.1,0.2-0.1,0.3-0.3,0.4c-0.1,0-0.2,0.1-0.3,0.1c-0.1,0-0.2,0-0.3-0.1c-0.4-0.2-0.6-0.4-0.9-0.7
							c-0.5-0.5-1-1.1-1.5-1.7c-0.4-0.6-0.9-1.2-1.3-1.9c0,0,0.1,0,0.1,0c0.1,0.7,0.2,1.4,0.1,2.1c0,0.2-0.1,0.3-0.2,0.5
							s-0.3,0.2-0.4,0.2c-0.4-0.1-0.7-0.3-0.9-0.6c-0.5-0.6-1-1.2-1.4-1.9c-0.4-0.7-0.8-1.3-1.2-2c0.4,0.7,0.8,1.3,1.2,2
							c0.4,0.6,0.9,1.3,1.4,1.8c0.3,0.3,0.6,0.5,0.9,0.6c0.3,0,0.5-0.2,0.5-0.6c0.1-0.6,0-1.4-0.1-2.1c0-0.1,0-0.2-0.1-0.4
							c0.1,0.1,0.1,0.2,0.2,0.3c0.4,0.6,0.8,1.3,1.3,1.8c0.4,0.6,0.9,1.2,1.4,1.7c0.3,0.2,0.5,0.5,0.8,0.6c0.3,0.1,0.5-0.1,0.6-0.3
							c0.1-0.6-0.1-1.3-0.2-1.9c-0.1-0.2-0.1-0.4-0.2-0.6c0.1,0.2,0.2,0.3,0.4,0.5c0.4,0.6,0.9,1.2,1.5,1.7c0.3,0.2,0.6,0.5,0.9,0.6
							c0.3,0.2,0.7,0.2,0.9,0.1c0.2-0.2,0.2-0.5,0.2-0.8c0-0.3-0.1-0.7-0.1-1c-0.1-0.7-0.3-1.4-0.6-2c0-0.1-0.1-0.3-0.1-0.4
							c0.1,0.1,0.2,0.2,0.3,0.3c0.5,0.6,1,1.2,1.6,1.8c0.3,0.3,0.6,0.5,0.9,0.7c0.2,0.1,0.3,0.2,0.5,0.2c0.2,0.1,0.4,0.1,0.5,0l0,0
							c0.1,0,0.2-0.2,0.2-0.3c0-0.2,0-0.3,0-0.5c-0.1-0.3-0.2-0.7-0.3-1c-0.2-0.6-0.5-1.3-0.8-1.9C47.7,43.9,47,42.7,46.3,41.4
							L46.3,41.4z"/>
					</g>
				</g>
				<g>
					<path class="st9" d="M54.4,23.4c-0.8,0.4-1.2,1.4-0.9,2.2c0.4,0.8,1.4,1.2,2.2,0.9c0.8-0.4,1.2-1.4,0.9-2.2
						S55.3,23.1,54.4,23.4L54.4,23.4z"/>
					<path class="st10" d="M56.2,25.1c-0.1,0.2-0.4,0.2-0.6,0.1s-0.2-0.4-0.1-0.6c0.1-0.2,0.4-0.2,0.6-0.1
						C56.3,24.7,56.3,24.9,56.2,25.1z"/>
				</g>
				<g>
					<path class="st3" d="M59.9,26.9c0,0-2.1,0.5-1.4,3.4c0,0,3.7,0.3,6.2,0L59.9,26.9L59.9,26.9z"/>
					<path class="st9" d="M58.5,28.3C58.5,28.3,58.5,28.2,58.5,28.3L58.5,28.3L58.5,28.3c0.2,0,4,1.2,5.9,1.9c0,0,0,0,0,0.1
						c0,0,0,0-0.1,0C59.2,28.5,58.6,28.3,58.5,28.3z"/>
				</g>
			</g>
		</g>
	</g>
</g>
</svg>
